<svg xmlns="http://www.w3.org/2000/svg" fill="none" viewBox="0 0 128 128">
    <path
        d="M 64.130921,0 C 28.590064,0 1.8129371e-6,28.852356 1.8129371e-6,64.524362 1.8129371e-6,93.114427 18.360591,117.24549 43.803125,125.77006 c 3.147529,0.65574 4.327852,-1.44261 4.327852,-3.14753 0,-1.44262 -0.131145,-6.68851 -0.131145,-11.9344 -17.836003,3.80326 -21.508121,-7.73767 -21.508121,-7.73767 -2.885235,-7.475393 -7.081942,-9.442593 -7.081942,-9.442593 -5.770472,-3.93441 0.393442,-3.93441 0.393442,-3.93441 6.426207,0.39344 9.836031,6.68849 9.836031,6.68849 5.770471,9.836033 14.950766,7.081953 18.622884,5.377033 0.524588,-4.196703 2.2295,-7.081933 4.06556,-8.655703 -14.163885,-1.44262 -29.114651,-7.08194 -29.114651,-31.868739 0,-7.081942 2.491794,-12.852414 6.557353,-17.311414 -0.655735,-1.573765 -2.885235,-8.262267 0.655736,-17.049121 0,0 5.37703,-1.704912 17.573708,6.688501 5.114736,-1.442617 10.622912,-2.098352 15.999943,-2.098352 5.37703,0 10.885208,0.786882 15.999946,2.098352 12.19668,-8.393413 17.57371,-6.688501 17.57371,-6.688501 3.540969,8.918002 1.31147,15.475356 0.65573,17.049121 4.196709,4.459 6.557349,10.229472 6.557349,17.311414 0,24.786799 -14.950759,30.294969 -29.245793,31.868739 2.360647,1.96721 4.327854,5.90162 4.327854,11.934383 0,8.6557 -0.13115,15.60652 -0.13115,17.70487 0,1.70492 1.18033,3.80327 4.32786,3.14753 C 109.63895,117.24549 127.99955,93.114427 127.99955,64.524362 128.1307,28.852356 99.409481,0 64.130921,0 Z"
    />
    <style>
        path {
            fill: #1b1f24;
        }
        @media (prefers-color-scheme: dark) {
            path {
                fill: #fff;
            }
        }
    </style>
</svg>
